<?xml version="1.0" encoding="UTF-8"?><svg xmlns="http://www.w3.org/2000/svg" xmlns:xlink="http://www.w3.org/1999/xlink" height="100.0" preserveAspectRatio="xMidYMid meet" version="1.0" viewBox="-0.3 -0.5 96.4 100.0" width="96.4" zoomAndPan="magnify"><g id="change1_1"><path d="M90.7,23.7c-7-13-27.4-22.9-41.7-23.6C38.5-0.5,27.9,2.7,19.5,9C11.7,14.9,6,23,2.7,32.2 C0,39.9-0.3,48.1,0.2,56.3c0,0.5,3.7,43.2,50.7,39.7c20.7-3.2,40.5-17,43.6-38.8C96,46,96.1,33.8,90.7,23.7z" fill="#148555"/></g><g id="change2_1"><path d="M90.8,44.1c-14.1-10.3-28-19.8-43.6-27.7l-0.3-0.2C30.7,23.7,15.8,34,3.2,46.6c13.4,12.6,28.1,23.7,44,33.1 c0.5,0.3,1,0.6,1.5,0.5c0.6-0.1,1-0.5,1.5-0.9c12.6-12.2,29.1-19.9,41-32.8c0.3-0.4,0.7-0.8,0.6-1.3C91.6,44.7,91.2,44.4,90.8,44.1z" fill="#e0df3b"/></g><g id="change3_1"><path d="M65.7,41.8c-2.1-11.8-15.4-15.7-25.6-12.5c-1.6,0.5-3.2,1.2-4.7,2.1c-7.9,4.8-11.9,15-9.5,23.8 c0.7,2.6,1.9,5.1,3.9,6.9c2.7,2.6,6.5,3.7,10.1,4.3c4.1,0.7,8.4,0.8,12.4-0.3c4-1.1,7.8-3.4,10-7c1.4-2.2,2.1-4.9,2.7-7.4 C65.8,48.4,66.3,45.1,65.7,41.8z" fill="#274395"/></g><g id="change4_1"><path d="M21.3,54.2c7.1-4.5,15.4-7.1,23.8-7.8c3.8-0.3,7.7-0.2,11.5,0.3c3.9,0.6,7.5,2,11.3,2.4c3.2,0.4,4.2-4.4,1.6-5.9 c-7.1-3.9-17.4-3.2-25.1-1.9c-9,1.5-16.9,5.4-24.2,10.9C19.1,53.1,20.1,55,21.3,54.2L21.3,54.2z"/></g></svg>