<?xml version="1.0" encoding="UTF-8"?><svg xmlns="http://www.w3.org/2000/svg" xmlns:xlink="http://www.w3.org/1999/xlink" height="516.3" preserveAspectRatio="xMidYMid meet" version="1.0" viewBox="-8.2 -11.4 295.6 516.3" width="295.6" zoomAndPan="magnify"><g id="change1_1"><path d="M165.9,448.6l0.3,41.6c-59.9,14.7-155.3,0-155.3,0v-41.6H165.9z" fill="#8C5243"/></g><g id="change2_1"><path d="M128.6,102.8c-4.5,4.6-8.9,9.7-15,11.7c-6.2,2.1-13.2,0.5-18.9-2.8c-5.7-3.3-9.4-7.3-13.8-12.2 c4.9-9.9-21.3-64.9,11.7-88.7c30.7-22.2,61-5.1,67.4,4.7c0,0-0.4,12.8,10.2,12.8c25.9,13.2,11.9,33.6,37.8,41.2 c-4.3,12.8-30.2,16.2-41.8,6.9C151,82.6,140,91.1,128.6,102.8z" fill="#D76249"/></g><g id="change3_1"><path d="M167.4,302.2l75.6-80.6c1.3-1.4,3.4-1.9,5.3-1.2l35.1,14c3.2,1.3,4,5.4,1.6,7.8l-74,73.8 c-1.1,1.1-2.7,1.6-4.3,1.3l-36.7-7.2C166.3,309.5,164.8,305,167.4,302.2z" fill="#F5D6C3"/></g><g id="change4_1"><path d="M165.9,448.6c-88.7,32.9-155,0-155,0S-8.2,211.3,4.2,180.4s49.4-57,49.4-57s8.8,1.3,12.9,5l30.4,12.9 l10.6,11.2c0,0,20.9,11.4,25.6,15.8c4.7,4.4-3,21.4,1.4,30.8c4.4,9.4,20,65.9,23.2,111.1C160.8,355.3,167.3,420.2,165.9,448.6z M249.4,227.7c-1.2,0.4-7.5,6.6-35.4,36.1c-2.2,2.3-3.9,4.1-4,4.3c0,0,37.4-36.7,40-38.5c2.2,0,31.6,9.6,31.6,9.6 C270.5,234.6,251.5,227,249.4,227.7z" fill="#918658"/></g><g id="change3_2"><path d="M106.9,148.7c30.7,71.4,39.8,147.8,39.8,147.8c-3.9-25.2-38.3-120.3-43.9-128.2 C102.9,168.2,93.1,116.6,106.9,148.7z" fill="#F5D6C3"/></g><g id="change5_1"><path d="M174.4,80.5c-1.2,29.2-32.6,87.8-61.9,67.5l-9.6,20.3c0,0-16.8-28.8-36.4-39.8l14.4-28.8 c0,0,8.4,4.3,15.5-6.9c2.9-4.5-7.2-18.9,0.3-24c5.8-4,10.2-0.8,14,1.2c0.3,0.6,0.7,0.9,1.2,0.6c0.7,0.3,1.3,0.5,2,0.6 c0.5,0.1,1,0.1,1.7,0c6.7,1.7,21.8,5,40.2-9.2C155.7,61.9,162,77.3,174.4,80.5z" fill="#EEAA94"/></g><g id="change1_2"><path d="M161.2,404.3c-0.2,0-0.5,0-0.7,0c-30.6-0.9-30.3-44.9-30.2-61.4c0.1-22.4-19.6-116.2-41.6-156.1 c-22.5-40.7-4.7-85.2,2-101.9l1.9,0.7c-6.6,16.5-24.2,60.4-2.1,100.2c22.2,40.1,42,134.5,41.9,157.1c-0.1,25.2,2.6,58.7,28.3,59.4 c5.8,0.2,10.8-1.8,15-6c11.5-11.4,16.7-39,15.4-82l2-0.1c1.2,43.6-4.2,71.7-16,83.5C172.5,402,167.3,404.3,161.2,404.3z" fill="#8C5243"/></g><g id="change5_2"><path d="M118.3,347.4c-0.3,0-23.6,3.6-45.9,3.6c-8.3,0-16.4-0.5-23.2-1.9c-25.6-5.1-28.6-45.9-28.7-47.6 c0,0,5,40.8,29.1,45.6C74.3,352.2,118.3,347.4,118.3,347.4z M10,186.2c-7,17.9-2.8,60.8-2.6,62.6c0,0,0-20.6,0.8-39 C8.6,201,10,186.2,10,186.2z M78.7,192.6c5.9,19.4,4.4,65.2,3.6,89.8c-0.5,15.7-0.5,15.7,0.3,16.3c1.3,0.9,17.7,2.8,27.3,3.8 c0,0-23.4-4.7-25.9-5.4c-0.1-1.6,0.1-7.7,0.3-14.6c0.8-24.7,2.4-70.7-3.6-90.5c-7.3-23.8-22-33.5-45-29.4c0,0,27.1,2.8,34.9,13 C73.9,180.1,76.6,185.7,78.7,192.6z M121,344.7c0,0,28.1-4.9,52.7-10.9c22.1-5.4,47.7-23.6,60.6-32.2c12.9-8.6,13.7-16.2,13.7-16.2 c9.9-7.9,6.8-13.2,6.8-13.2s4.3-4.6,2.8-7c-1.7-2.6-5.8-0.5-5.8-0.5s2.7-5.1-1.9-6.3c-4.6-1.1-14.4,5.7-25.8,13.8 c-11.4,8.1-20.8,9.8-20.8,9.8s7.9-16.7,1.1-16.4c-6.8,0.4-33.8,33.4-43.7,37.6c-9.9,4.2-46.5,0.4-46.5,0.4 C114,317.5,121,344.7,121,344.7z" fill="#EEAA94"/></g><g id="change1_3"><path d="M170.2,28.3c-3.9-0.8-29.9,16.3-47.7,31.8c2.7,7.3,0.6,16.5-6,23.1c-8.7,8.7-21.8,9.6-29.3,2.1 s-6.6-20.6,2.1-29.3c6.2-6.2,14.7-8.4,21.8-6.4c10.2-9.7,31.6-28.6,48.9-34.1C165.8,15.6,170.8,24.3,170.2,28.3z M252.6,265.2 c0,0-15.2,9.9-22.7,15.5c-6.1,4.6-9.5,7.2-10.2,7.9c0,0,6.6-2.6,11.4-6.3C243.1,273.3,251.7,266.8,252.6,265.2z M228,295.7 c1.5-1,10.2-7.6,17.4-13.6c4.9-4,8.5-10.5,8.5-10.5C251.7,275.1,228,295.7,228,295.7z M237.4,294.3c5.2-4.4,10.6-8.9,10.6-8.9 s-13.8,9.7-21.1,14.9C226.8,300.3,233.4,297.7,237.4,294.3z" fill="#8C5243"/></g></svg>