<?xml version="1.0" encoding="UTF-8"?><svg xmlns="http://www.w3.org/2000/svg" xmlns:xlink="http://www.w3.org/1999/xlink" height="306.9" preserveAspectRatio="xMidYMid meet" version="1.0" viewBox="-5.5 -0.2 301.9 306.9" width="301.9" zoomAndPan="magnify"><g id="change1_1"><path d="M208.3497,50.0081c-28.596,3.2598-60.6477,8.8204-62.1067,9.0744 c-1.3721-0.2389-29.8047-5.172-56.9724-8.4702c0.9676-4.6884,2.3371-9.6312,4.2236-14.8408 c12.0098-33.1658,39.7803-35.9966,57.4423-35.759c6.8333,0.092,32.4327,1.2761,44.6997,19.3808 C203.0548,30.3425,206.8173,40.5376,208.3497,50.0081z M208.3497,50.0081c-28.596,3.2598-60.6477,8.8204-62.1067,9.0744 c-1.3721-0.2389-29.8047-5.172-56.9724-8.4702c0.9676-4.6884,2.3371-9.6312,4.2236-14.8408 c12.0098-33.1658,39.7803-35.9966,57.4423-35.759c6.8333,0.092,32.4327,1.2761,44.6997,19.3808 C203.0548,30.3425,206.8173,40.5376,208.3497,50.0081z" fill="#892F2C"/></g><g id="change2_1"><path d="M255.4346,276.5268c-17.5583-4.1633-30.3533-24.0269-37.766-35.7979c0,0-3.321,59.711-5.408,61.0153 c-2.0823,1.3014-32.6172,4.9396-65.9086,4.9558c0,0.0002,0,0.0005,0,0.0007c-0.0372,0-0.0737-0.0004-0.1109-0.0004 s-0.0737,0.0004-0.1109,0.0004c0-0.0002,0-0.0005,0-0.0007c-33.2914-0.0162-63.8263-3.6544-65.9086-4.9558 c-2.087-1.3043-5.408-61.0153-5.408-61.0153c-7.4127,11.771-20.3499,31.0748-37.766,35.7979 C6.265,284.8747-5.474,260.0921,2.352,225.9182c7.8261-34.1739,23.7214-64.1565,23.7214-64.1565l25.1916,15.3087 c0,0,2.2826-5.4783,5.4783-11.1522c4.6957-10.4348,21-22.1739,30.913-24.2609l58.5848,36.9735l58.5848-36.9735 c9.913,2.087,26.2173,13.8261,30.913,24.2609c3.1957,5.674,5.4783,11.1522,5.4783,11.1522l25.1916-15.3087 c0,0,14.3301,29.7217,22.1563,63.8956C296.3911,259.8312,284.0681,283.3163,255.4346,276.5268z M217.4842,35.077 c-36.5423,3.3549-67.622,18.8412-71.2412,20.6987c-4.0878-2.098-43.2079-21.5826-85.6631-21.3358 c-0.5217,7.5652-0.5217,7.5652-0.5217,7.5652s-3.913-0.7826-9.3913-0.7826c1.5652,7.0435,2.6087,12.2609,2.6087,12.2609 l92.8033,8.8384l0.001,0.0311l0.1631-0.0155l0.163,0.0155l0.001-0.0311l92.8033-8.8384c0,0,1.0435-5.2174,2.6087-12.2609 c-5.4783,0-9.3913,0.7826-9.3913,0.7826s0,0-0.5217-7.5652C227.039,34.4116,222.2158,34.6426,217.4842,35.077" fill="#F3D4B7"/></g><g id="change3_1"><path d="M225.5792,186.2659c-7.0184,4.679-78.8052,17.5153-79.3301,17.6066v0.0021c0,0-0.0056-0.001-0.0061-0.0011 c-0.0005,0.0001-0.0062,0.0011-0.0062,0.0011v-0.0021c-0.5249-0.0913-72.3117-12.9276-79.3301-17.6066 c-3.1304-22.6956-10.6087-73.9565-22.3478-138.1304c20.8201-3.0845,99.3807,10.5459,101.6841,10.947 c2.3034-0.4011,80.864-14.0314,101.6841-10.947C236.1879,112.3095,228.7097,163.5703,225.5792,186.2659z M225.5792,186.2659 c-7.0184,4.679-78.8052,17.5153-79.3301,17.6066v0.0021c0,0-0.0056-0.001-0.0061-0.0011c-0.0005,0.0001-0.0062,0.0011-0.0062,0.0011 v-0.0021c-0.5249-0.0913-72.3117-12.9276-79.3301-17.6066c-3.1304-22.6956-10.6087-73.9565-22.3478-138.1304 c20.8201-3.0845,99.3807,10.5459,101.6841,10.947c2.3034-0.4011,80.864-14.0314,101.6841-10.947 C236.1879,112.3095,228.7097,163.5703,225.5792,186.2659z" fill="#935387"/></g><g id="change4_1"><path d="M89.4824,112.4399c2.087,3.7827-0.4931,8.1077-5.4904,11.7645 c-0.4263,6.3688-12.5937,15.595-21.5584,20.3178c-1.7773,5.9394-0.4077,17.2872-9.9946,20.8494 c-0.2991-0.1942-6.2108,10.725-6.5087,10.5395c-13.5222-5.7556-19.8569-14.1495-19.8569-14.1495s5.4729-12.7652,9.5279-22.0959 c4.0959-9.425,7.2461-14.8477,11.6461-21.2358c0.1881-0.3646,0.3787-0.6493,0.5716-0.8277c0.2294-0.3296,0.5879-0.66,1.0477-0.9882 c11.3936-10.2379,34.0058-14.4028,38.1782-11.4947c0.913-0.2445,1.5652-0.4402,2.7636-0.2935 C92.5745,105.1644,92.189,111.9834,89.4824,112.4399z M202.9862,112.4399c-2.087,3.7827,0.4931,8.1077,5.4904,11.7645 c0.4263,6.3688,12.5937,15.595,21.5584,20.3178c1.7773,5.9394,0.4077,17.2872,9.9946,20.8494 c0.2991-0.1942,6.2108,10.725,6.5087,10.5395c13.5222-5.7556,19.8569-14.1495,19.8569-14.1495s-5.4729-12.7652-9.5279-22.0959 c-4.0959-9.425-7.2461-14.8477-11.646-21.2358c-0.1881-0.3646-0.3787-0.6493-0.5716-0.8277 c-0.2294-0.3296-0.5879-0.66-1.0477-0.9882c-11.3936-10.2379-34.0058-14.4028-38.1782-11.4947 c-0.9131-0.2445-1.5652-0.4402-2.7636-0.2935C199.8941,105.1644,200.2796,111.9834,202.9862,112.4399z M146.243,55.7757 c1.6316-0.8374,8.8567-4.4461,19.6347-8.463c-10.4599-13.5446-15.8101-29.4119-15.8735-29.1772 c-2.6323,9.7394-9.5603,21.777-17.5579,31.4438C139.9656,52.62,144.9271,55.1003,146.243,55.7757z" fill="#E1704B"/></g><g id="change5_1"><path d="M113.8002,42.9664c-0.4741-0.1454-0.9489-0.2908-1.4305-0.435c2.5629-6.6019,5.8513-12.938,9.1293-19.1938 c0.4487-0.8563,1.7429-0.0971,1.2952,0.7571c-1.3376,2.5526-2.6723,5.107-3.9585,7.686 C117.0181,35.4253,115.2866,39.1523,113.8002,42.9664z M188.4604,40.2145c0.4871-0.1249,0.9736-0.25,1.4661-0.3726 c-1.7479-4.3563-3.8885-8.5562-6.4086-12.5256c-1.8404-2.8987-3.8819-5.6674-6.0938-8.2933 c-0.6227-0.7392-1.6791,0.3265-1.0607,1.0607C181.4326,26.1019,185.5079,32.9291,188.4604,40.2145z M87.457,104.4123 c-8.2958,2.7692-16.5416,5.866-24.3143,9.9017c-1.8596,0.9656-3.6877,1.9908-5.4736,3.0869 c-0.8214,0.5042-0.0687,1.8021,0.7571,1.2952c6.8545-4.2073,14.3022-7.3895,21.8302-10.1735 c2.5178-0.9311,5.0531-1.814,7.5994-2.6639C88.7668,105.5546,88.3762,104.1055,87.457,104.4123z M88.9896,111.8471 c-3.9023,0.8246-7.6453,2.3493-11.2762,3.9684c-4.0679,1.814-8.0318,3.8545-11.9648,5.942 c-2.0014,1.0623-3.9943,2.1405-5.9926,3.2086c-0.8516,0.4553-0.0948,1.7506,0.7571,1.2952 c7.4444-3.9794,14.8656-8.1929,22.7974-11.1423c1.9836-0.7375,4.0054-1.3876,6.0778-1.8256 C90.3322,113.0941,89.9328,111.6478,88.9896,111.8471z M83.9925,121.6876c-0.6005-0.3269-1.4031-0.046-2.0054,0.152 c-0.7744,0.2546-1.526,0.5842-2.2657,0.9248c-4.3276,1.9922-8.4167,4.5273-12.509,6.9534c-1.9753,1.171-3.9409,2.3644-5.9562,3.4658 c-0.8473,0.4631-0.0912,1.7588,0.7571,1.2952c3.5748-1.9537,7.0295-4.1281,10.5549-6.1686c1.9216-1.1124,3.8545-2.209,5.828-3.2274 c1.4025-0.7238,2.849-1.4907,4.3774-1.9155c0.1381-0.0383,0.2772-0.0703,0.4169-0.1017c0.0342-0.0077,0.0694-0.0135,0.1042-0.0193 c0.0088,0.0192,0.0182,0.0389,0.0261,0.0696c0.0416,0.1621,0.0861,0.3212,0.1039,0.491c0.1584,1.5158-0.5568,3.0653-1.405,4.2697 c-0.5569,0.7908,0.743,1.5411,1.2952,0.7571c0.8931-1.2682,1.5018-2.754,1.61-4.3108 C84.9864,123.4386,84.8762,122.1687,83.9925,121.6876z M50.6594,168.1111l-4.7291,7.8c0,0,11.5335,5.5196,16.0139,5.2783 c-1.6666,8.0469-10.4088,50.2168-14.152,67.5275c-0.0869,0.4043,0.1699,0.8037,0.5752,0.8916 c0.0527,0.0107,0.1064,0.0166,0.1592,0.0166c0.3457,0,0.6563-0.2402,0.7324-0.5918c4.126-19.0869,14.3281-68.3809,14.4307-68.876 c0.0145-0.0701,0.006-0.1379,0.001-0.2059C63.8368,176.4307,50.6594,168.1111,50.6594,168.1111z M212.8249,107.1555 c-2.5881-0.9603-5.1949-1.8691-7.8132-2.7432c-0.9177-0.3063-1.3113,1.1418-0.3987,1.4464 c8.2338,2.7485,16.4142,5.8165,24.1216,9.8368c1.8026,0.9402,3.5751,1.9371,5.3079,3.0007c0.825,0.5063,1.5793-0.7905,0.7571-1.2952 C227.9014,113.1669,220.3977,109.9653,212.8249,107.1555z M225.9629,123.0528c2.0013,1.0623,3.9943,2.1404,5.9926,3.2086 c0.8511,0.455,1.6096-0.8395,0.7571-1.2952c-7.5616-4.0419-15.0996-8.2968-23.1558-11.2935 c-1.9835-0.7378-4.0054-1.3876-6.0778-1.8256c-0.9417-0.199-1.3442,1.2466-0.3987,1.4464c3.8401,0.8115,7.53,2.2986,11.1008,3.899 C218.1846,118.987,222.0888,120.9964,225.9629,123.0528z M231.2126,133.1836c-3.9279-2.1467-7.7163-4.5475-11.6009-6.7709 c-2.0365-1.1656-4.088-2.3162-6.2024-3.3359c-0.8196-0.3953-1.6517-0.7739-2.5058-1.0891c-0.5569-0.2056-1.1847-0.4393-1.7869-0.45 c-1.2184-0.0215-1.5682,1.3743-1.5856,2.3419c-0.0303,1.6961,0.6606,3.3879,1.6227,4.754c0.5516,0.7832,1.8527,0.0345,1.2952-0.7571 c-0.7914-1.1237-1.4009-2.4559-1.4181-3.8535c-0.0024-0.1957,0.0015-0.3945,0.0359-0.5873 c0.0176-0.0988,0.1014-0.2617,0.1382-0.3828c0.0464,0.0084,0.0928,0.0165,0.1389,0.0263c1.4203,0.303,2.7761,1.0186,4.063,1.6645 c4.0208,2.018,7.8772,4.3631,11.7446,6.656c1.758,1.0422,3.5103,2.0988,5.304,3.079 C231.3029,134.9419,232.0608,133.6471,231.2126,133.1836z M230.524,181.1894c4.48,0.2417,16.0143-5.2783,16.0143-5.2783l-4.7292-7.8 c0,0-13.1693,8.3145-13.0316,11.837c-0.0054,0.069-0.0137,0.1379,0.001,0.2092c0.1025,0.4951,10.3047,49.7891,14.4307,68.876 c0.0762,0.3516,0.3867,0.5918,0.7324,0.5918c0.0527,0,0.1064-0.0059,0.1592-0.0166c0.4053-0.0879,0.6621-0.4873,0.5752-0.8916 C240.9328,231.4062,232.1906,189.2363,230.524,181.1894z M145.4865,203.8721h1.5l0.0068-144.7896h-1.5L145.4865,203.8721z M51.3332,40.9263c0.5938,0.0493,59.7939,5.0864,94.7783,16.9194c0.0022,0.0007,0.0044,0.0004,0.0066,0.0011 c0.0748,0.0246,0.1534,0.0385,0.2336,0.0385s0.1589-0.0139,0.2336-0.0385c0.0022-0.0007,0.0044-0.0004,0.0066-0.0011 c34.9844-11.8325,94.7012-16.8701,95.2998-16.9194c0.4131-0.0342,0.7197-0.3965,0.6855-0.8091 c-0.0342-0.4131-0.4014-0.7109-0.8086-0.686c-0.6002,0.0497-60.2261,5.0795-95.4169,16.914 c-35.1875-11.8341-94.2993-16.8643-94.8936-16.914c-0.4053-0.0269-0.7754,0.272-0.8096,0.6851 C50.6135,40.5293,50.9211,40.8917,51.3332,40.9263z M74.9856,230.9707c-0.8223-17.0186-1.7578-33.9287-3.3408-37.4473 c-0.1699-0.3789-0.6172-0.5459-0.9912-0.376c-0.3779,0.1699-0.5459,0.6133-0.376,0.9912c1.5986,3.5537,2.6465,25.249,3.21,36.9043 c0.2998,6.207,0.4512,9.2188,0.5947,9.8525c0.0791,0.3477,0.3887,0.583,0.7305,0.583c0.0557,0,0.1113-0.0059,0.168-0.0186 c0.4033-0.0918,0.6563-0.4941,0.5645-0.8984C75.424,240.0293,75.2209,235.8321,74.9856,230.9707z M222.2365,196.712 c-3.4775,3.7471-5.1396,39.877-5.3174,43.9844c-0.0186,0.4131,0.3027,0.7637,0.7168,0.7813c0.0107,0.001,0.0215,0.001,0.0332,0.001 c0.3984,0,0.7305-0.3145,0.748-0.7178c0.6904-15.9092,2.5693-40.4971,4.9189-43.0273c0.2813-0.3037,0.2637-0.7783-0.0391-1.0605 C222.9934,196.3916,222.5178,196.4102,222.2365,196.712z M175.1496,278.2921c-9.4465-3.0781-18.3433-8.7958-26.2803-15.4642 c-0.1412-25.7179-0.3796-54.2992-0.3975-56.4157c-0.0039-0.4121-0.3389-0.7441-0.75-0.7441c-0.002,0-0.0039,0-0.0059,0 c-0.415,0.0039-0.748,0.3418-0.7441,0.7559c0.0043,0.5163,0.2421,29.0377,0.3884,55.1162 c-19.9318-17.3059-33.4323-40.1109-33.6218-40.4355c-0.209-0.3574-0.668-0.4785-1.0264-0.2686 c-0.3574,0.209-0.4775,0.6689-0.2686,1.0264c0.1944,0.3322,14.2336,24.0532,34.9276,41.6497 c0.1105,20.2583,0.1603,38.5573-0.0057,40.3816c-0.0371,0.4131,0.2666,0.7773,0.6787,0.8154 c0.0234,0.002,0.0469,0.0029,0.0693,0.0029c0.3838,0,0.7109-0.293,0.7461-0.6816c0.168-1.847,0.1256-19.4708,0.0203-39.2551 c7.8262,6.4379,16.5513,11.9276,25.8049,14.9426c0.0771,0.0254,0.1553,0.0371,0.2324,0.0371c0.3164,0,0.6104-0.2012,0.7129-0.5176 C175.759,278.8438,175.5432,278.42,175.1496,278.2921z M52.7326,196.045c-0.4473,0-0.8877-0.1826-1.2598-0.5313 c-0.9482-0.8887-1.2266-2.6221-0.7441-4.6367c0.7861-3.2891,2.3857-3.4424,3.0352-3.3545c1.1221,0.1504,1.9688,1.2988,1.9268,2.6152 c-0.0137,0.4053-0.3467,0.7256-0.75,0.7256c-0.0078,0-0.0156,0-0.0244,0c-0.4141-0.0137-0.7383-0.3604-0.7256-0.7744 c0.0186-0.5674-0.3154-1.0381-0.626-1.0801c-0.4082-0.0557-0.9951,0.6191-1.377,2.2178c-0.4189,1.749-0.0938,2.8125,0.3115,3.1934 c0.0615,0.0566,0.1826,0.1426,0.2822,0.1172c0.1387-0.043,0.3213-0.2822,0.4189-0.7217c0.0898-0.4053,0.4951-0.6572,0.8955-0.5693 c0.4043,0.0908,0.6592,0.4912,0.5693,0.8955c-0.2109,0.9443-0.7363,1.6113-1.4414,1.8281 C53.0608,196.0206,52.8967,196.045,52.7326,196.045z M47.0998,215.7012c-0.4727,0-0.9346-0.1982-1.3164-0.5752 c-1.1104-1.0986-1.3672-3.46-0.6543-6.0166c0.5684-2.0371,1.3301-3.1504,2.3291-3.4033c0.6299-0.1641,1.2764,0.0547,1.8086,0.6055 c0.7422,0.7686,1.1309,2.0342,0.8848,2.8828c-0.1162,0.3984-0.5361,0.623-0.9297,0.5117c-0.3975-0.1162-0.627-0.5322-0.5117-0.9297 c0.0781-0.2666-0.1113-0.998-0.5215-1.4229c-0.0664-0.0684-0.2295-0.2266-0.3623-0.1934c-0.2383,0.0605-0.7705,0.623-1.252,2.3516 c-0.6436,2.3086-0.3145,3.9756,0.2637,4.5479c0.1758,0.1729,0.2822,0.1455,0.3271,0.1309c0.2666-0.0771,0.8125-0.623,1.168-2.1787 c0.0928-0.4043,0.5-0.6553,0.8984-0.5645c0.4043,0.0928,0.6563,0.4951,0.5645,0.8984c-0.418,1.8252-1.2031,2.9922-2.2119,3.2852 C47.424,215.6778,47.2609,215.7012,47.0998,215.7012z M239.1858,196.045c-0.1641,0-0.3281-0.0244-0.4902-0.0752 c-0.7061-0.2168-1.2314-0.8838-1.4424-1.8281c-0.0898-0.4043,0.165-0.8047,0.5693-0.8955c0.3965-0.0879,0.8047,0.1641,0.8955,0.5693 c0.0977,0.4395,0.2813,0.6787,0.4189,0.7217c0.1016,0.0273,0.2217-0.0596,0.2832-0.1182c0.4053-0.3799,0.7305-1.4443,0.3115-3.1924 c-0.3828-1.5986-0.9717-2.2744-1.377-2.2178c-0.3105,0.042-0.6455,0.5127-0.627,1.0811c0.0127,0.4141-0.3125,0.7598-0.7266,0.7734 c-0.4297-0.002-0.7598-0.3125-0.7734-0.7266c-0.041-1.3154,0.8057-2.4639,1.9277-2.6143c0.6484-0.0879,2.248,0.0645,3.0352,3.3545 c0.4814,2.0146,0.2041,3.7471-0.7441,4.6367C240.0744,195.8624,239.633,196.045,239.1858,196.045z M244.8186,215.7012 c-0.1611,0-0.3232-0.0234-0.4844-0.0703c-1.0088-0.293-1.7939-1.46-2.2119-3.2852c-0.0918-0.4033,0.1602-0.8057,0.5645-0.8984 c0.3975-0.0908,0.8057,0.1602,0.8984,0.5645c0.3555,1.5557,0.9014,2.1016,1.168,2.1787c0.042,0.0137,0.1494,0.0449,0.3271-0.1318 c0.5791-0.5713,0.9082-2.2383,0.2646-4.5469c-0.4814-1.7275-1.0137-2.291-1.252-2.3516c-0.1201-0.0293-0.2949,0.125-0.3623,0.1934 c-0.4102,0.4248-0.6006,1.1563-0.5225,1.4229c0.1152,0.3984-0.1143,0.8145-0.5117,0.9297 c-0.4072,0.1113-0.8145-0.1152-0.9297-0.5117c-0.2451-0.8496,0.1436-2.1152,0.8857-2.8838 c0.5313-0.5508,1.1748-0.7686,1.8086-0.6045c0.999,0.2529,1.7607,1.3662,2.3291,3.4033c0.7129,2.5566,0.4561,4.918-0.6543,6.0166 C245.7541,215.503,245.2922,215.7012,244.8186,215.7012z"/></g></svg>