<?xml version="1.0" encoding="UTF-8" standalone="no"?><svg xmlns="http://www.w3.org/2000/svg" xmlns:xlink="http://www.w3.org/1999/xlink" fill="#99a2ae" height="510" preserveAspectRatio="xMidYMid meet" version="1" viewBox="1.0 1.0 510.0 510.0" width="510" zoomAndPan="magnify"><g><g id="change1_1"><path d="M501,221h-34.87c-5.296-31.997-17.892-62.394-36.807-88.82l24.668-24.668c3.905-3.905,3.905-10.237,0-14.143l-35.36-35.36 c-3.906-3.904-10.236-3.904-14.143,0L379.82,82.677C353.394,63.762,322.997,51.166,291,45.869V11c0-5.523-4.478-10-10-10h-50 c-5.523,0-10,4.477-10,10v34.869c-31.997,5.297-62.394,17.893-88.82,36.808l-24.668-24.668c-3.906-3.904-10.236-3.904-14.143,0 l-35.36,35.36c-3.905,3.905-3.905,10.237,0,14.143l24.668,24.668C63.762,158.606,51.166,189.003,45.87,221H11 c-5.523,0-10,4.477-10,10v50c0,5.522,4.477,10,10,10h34.869c5.297,31.997,17.893,62.394,36.808,88.82l-24.668,24.668 c-3.905,3.905-3.905,10.237,0,14.143l35.36,35.36c3.906,3.904,10.236,3.904,14.143,0l25.014-25.014 c13.744,7.991,33.672,14.605,49.595,20.124C185.665,461.719,197.265,471,211,471h1.006c4.646,22.795,24.847,40,48.994,40 s44.348-17.205,48.994-40H311c12.553,0,23.323-7.753,27.791-18.719c14.456-6.095,28.214-13.78,41.03-22.958l24.667,24.668 c3.907,3.905,10.236,3.904,14.143,0l35.36-35.36c3.905-3.905,3.905-10.237,0-14.143l-24.668-24.668 c18.915-26.427,31.511-56.823,36.808-88.82H501c5.522,0,10-4.478,10-10v-50C511,225.477,506.522,221,501,221z M301.731,411H271 V309.734c17.233-4.452,30-20.13,30-38.734c0-22.056-17.944-40-40-40s-40,17.944-40,40c0,18.604,12.767,34.282,30,38.734V411 h-30.418c-2.798-48.28-19.624-95.057-48.963-135.856c-13.684-19.036-20.814-41.551-20.619-65.107 c0.511-59.268,49.136-108.178,108.392-109.027c29.689-0.422,57.697,10.823,78.831,31.66 c39.712,39.153,42.756,99.644,12.333,142.226C322.106,314.689,305.324,361.563,301.731,411z M261,291c-11.028,0-20-8.972-20-20 s8.972-20,20-20c11.028,0,20,8.972,20,20S272.028,291,261,291z M261,491c-13.037,0-24.159-8.359-28.286-20h56.572 C285.159,482.641,274.037,491,261,491z M311,451c-7.427,0-85.536,0-100,0c-5.478,0-9.937-4.429-9.995-9.894 C200.746,436.171,205.075,431,211,431c6.56,0,93.828-0.005,100.19,0.01c5.425,0.103,9.81,4.541,9.81,9.99 C321,446.514,316.514,451,311,451z M491,271h-33.53c-5.052,0-9.31,3.769-9.926,8.782c-4.236,34.539-17.825,67.332-39.296,94.833 c-3.108,3.982-2.761,9.654,0.811,13.226l23.719,23.719l-21.218,21.218l-23.719-23.719c-3.571-3.571-9.245-3.919-13.225-0.811 c-11.083,8.651-23.021,16.022-35.607,22.024c-3.056-7.951-9.401-14.28-17.363-17.313c3.249-45.953,18.781-89.505,45.181-126.435 c35.884-50.227,32.454-121.74-14.563-168.097c-24.527-24.182-56.865-37.43-91.258-37.43c-71.528,0-129.396,58.156-130.007,128.87 c-0.23,27.834,8.2,54.443,24.381,76.951c27.249,37.893,42.809,81.298,45.27,126.023c-7.498,2.765-13.59,8.446-16.911,15.657 c-16.717-5.781-36.913-12.881-46.357-20.251c-3.98-3.108-9.653-2.757-13.224,0.811l-23.719,23.719L79.223,411.56l23.719-23.719 c3.571-3.571,3.919-9.244,0.811-13.226c-21.471-27.501-35.06-60.294-39.296-94.833C63.841,274.769,59.582,271,54.53,271H21v-30 h33.53c5.052,0,9.311-3.769,9.926-8.782c4.236-34.539,17.825-67.332,39.296-94.833c3.108-3.981,2.761-9.654-0.811-13.226 L79.223,100.44l21.218-21.218l23.719,23.719c3.57,3.57,9.243,3.92,13.226,0.811c27.501-21.471,60.294-35.06,94.833-39.296 c5.014-0.615,8.782-4.874,8.782-9.926V21h30v33.53c0,5.052,3.769,9.311,8.782,9.926c34.539,4.236,67.332,17.825,94.833,39.296 c3.983,3.11,9.654,2.759,13.226-0.811l23.719-23.719l21.218,21.218l-23.719,23.719c-3.571,3.571-3.919,9.244-0.811,13.226 c21.471,27.501,35.06,60.294,39.296,94.833c0.615,5.014,4.874,8.782,9.926,8.782H491V271z"/></g></g></svg>