<?xml version="1.0" encoding="UTF-8"?><svg xmlns="http://www.w3.org/2000/svg" xmlns:xlink="http://www.w3.org/1999/xlink" height="26.0" preserveAspectRatio="xMidYMid meet" version="1.0" viewBox="0.0 5.0 36.0 26.0" width="36.0" zoomAndPan="magnify"><g id="change1_1"><path d="M36 27c0 2.209-1.791 4-4 4H4c-2.209 0-4-1.791-4-4V9c0-2.209 1.791-4 4-4h28c2.209 0 4 1.791 4 4v18z" fill="#C60A1D"/></g><g id="change2_1"><path d="M0 12h36v12H0z" fill="#FFC400"/></g><g id="change3_1"><path d="M9 17v3c0 1.657 1.343 3 3 3s3-1.343 3-3v-3H9z" fill="#EA596E"/></g><g id="change4_1"><path d="M12 16h3v3h-3z" fill="#F4A2B2"/></g><g id="change5_1"><path d="M9 16h3v3H9z" fill="#DD2E44"/></g><g id="change3_2"><ellipse cx="12" cy="14.5" fill="#EA596E" rx="3" ry="1.5"/></g><g id="change6_1"><ellipse cx="12" cy="13.75" fill="#FFAC33" rx="3" ry=".75"/></g><g id="change7_1"><path d="M7 16h1v7H7zm9 0h1v7h-1z" fill="#99AAB5"/></g><g id="change8_1"><path d="M6 22h3v1H6zm9 0h3v1h-3zm-8-7h1v1H7zm9 0h1v1h-1z" fill="#66757F"/></g></svg>